<svg xmlns="http://www.w3.org/2000/svg" width="1600" height="900" viewBox="0 0 1600 900" role="img" aria-label="Docker Compose 5.3 原生 pre_start 初始化容器实战">
  <defs>
    <linearGradient id="g" x1="0" y1="0" x2="1" y2="1">
      <stop offset="0%" stop-color="#0f172a"/>
      <stop offset="52%" stop-color="#2563eb"/>
      <stop offset="100%" stop-color="#06b6d4"/>
    </linearGradient>
    <radialGradient id="shine" cx="82%" cy="18%" r="38%">
      <stop offset="0%" stop-color="rgba(255,255,255,.30)"/>
      <stop offset="100%" stop-color="rgba(255,255,255,0)"/>
    </radialGradient>
  </defs>
  <rect width="1600" height="900" fill="url(#g)"/>
  <rect width="1600" height="900" fill="url(#shine)"/>
  <g opacity=".14" fill="none" stroke="#fff" stroke-width="10" stroke-linecap="round" stroke-linejoin="round">
    <rect x="980" y="235" width="360" height="120" rx="22"/>
    <rect x="980" y="415" width="360" height="120" rx="22"/>
    <rect x="980" y="595" width="360" height="120" rx="22"/>
    <path d="M1160 355v60M1160 535v60M910 295h70M910 475h70M910 655h70"/>
    <circle cx="275" cy="720" r="185" fill="#fff" stroke="none" opacity=".55"/>
  </g>
  <rect x="78" y="74" width="1444" height="752" rx="34" fill="rgba(15,23,42,.20)" stroke="rgba(255,255,255,.24)"/>
  <text x="128" y="186" font-size="34" font-family="Inter,Arial,sans-serif" fill="rgba(255,255,255,.9)">吾爱主机 · 技术博客</text>
  <text x="128" y="254" font-size="32" font-family="JetBrains Mono,Consolas,monospace" fill="rgba(255,255,255,.88)">DOCKER / DEVOPS</text>
  <text x="128" y="392" font-size="94" font-weight="800" font-family="Inter,'PingFang SC','Microsoft YaHei',sans-serif" fill="#fff">Docker Compose 5.3</text>
  <text x="128" y="502" font-size="70" font-weight="760" font-family="Inter,'PingFang SC','Microsoft YaHei',sans-serif" fill="#fff">pre_start 初始化容器实战</text>
  <text x="128" y="636" font-size="34" font-family="Inter,'PingFang SC','Microsoft YaHei',sans-serif" fill="rgba(255,255,255,.86)">声明式启动前置任务 · 更接近 Init Container</text>
  <text x="128" y="742" font-size="30" font-family="JetBrains Mono,Consolas,monospace" fill="rgba(255,255,255,.85)">blog.waihost.com</text>
</svg>
