<svg xmlns="http://www.w3.org/2000/svg" width="1600" height="900" viewBox="0 0 1600 900" role="img" aria-label="etcd 3.7.0 升级指南封面">
  <defs>
    <linearGradient id="bg" x1="0" y1="0" x2="1" y2="1">
      <stop offset="0" stop-color="#0f172a"/>
      <stop offset="0.55" stop-color="#123a5f"/>
      <stop offset="1" stop-color="#1d4ed8"/>
    </linearGradient>
    <radialGradient id="glow" cx="70%" cy="20%" r="60%">
      <stop offset="0" stop-color="#38bdf8" stop-opacity="0.34"/>
      <stop offset="1" stop-color="#38bdf8" stop-opacity="0"/>
    </radialGradient>
    <filter id="shadow" x="-20%" y="-20%" width="140%" height="140%">
      <feDropShadow dx="0" dy="18" stdDeviation="22" flood-color="#020617" flood-opacity="0.42"/>
    </filter>
  </defs>
  <rect width="1600" height="900" fill="url(#bg)"/>
  <rect width="1600" height="900" fill="url(#glow)"/>
  <g opacity="0.16" stroke="#e0f2fe" stroke-width="2">
    <path d="M120 720 C360 560 520 780 760 610 S1160 500 1480 660" fill="none"/>
    <path d="M140 250 C360 120 530 330 760 210 S1120 120 1460 290" fill="none"/>
  </g>
  <g transform="translate(955 215)" filter="url(#shadow)">
    <circle cx="140" cy="140" r="128" fill="#0f172a" stroke="#7dd3fc" stroke-width="6"/>
    <circle cx="140" cy="140" r="62" fill="#38bdf8" opacity="0.22"/>
    <g stroke="#bfdbfe" stroke-width="8" stroke-linecap="round">
      <line x1="140" y1="32" x2="140" y2="86"/>
      <line x1="140" y1="194" x2="140" y2="248"/>
      <line x1="32" y1="140" x2="86" y2="140"/>
      <line x1="194" y1="140" x2="248" y2="140"/>
      <line x1="64" y1="64" x2="101" y2="101"/>
      <line x1="179" y1="179" x2="216" y2="216"/>
      <line x1="216" y1="64" x2="179" y2="101"/>
      <line x1="101" y1="179" x2="64" y2="216"/>
    </g>
    <text x="140" y="156" text-anchor="middle" font-family="Inter, Arial, sans-serif" font-size="56" font-weight="800" fill="#f8fafc">3.7</text>
  </g>
  <g transform="translate(110 120)">
    <text x="0" y="0" font-family="Inter, 'PingFang SC', 'Microsoft YaHei', sans-serif" font-size="34" font-weight="700" fill="#bae6fd">吾爱主机 · 技术博客</text>
    <rect x="0" y="58" width="208" height="54" rx="27" fill="#0ea5e9" opacity="0.95"/>
    <text x="104" y="95" text-anchor="middle" font-family="Inter, 'PingFang SC', sans-serif" font-size="24" font-weight="700" fill="#ffffff">云原生 / etcd</text>
    <text x="0" y="218" font-family="Inter, 'PingFang SC', 'Microsoft YaHei', sans-serif" font-size="78" font-weight="900" fill="#ffffff">etcd 3.7.0</text>
    <text x="0" y="308" font-family="Inter, 'PingFang SC', 'Microsoft YaHei', sans-serif" font-size="58" font-weight="800" fill="#e0f2fe">升级、备份与兼容性检查</text>
    <text x="0" y="382" font-family="Inter, 'PingFang SC', 'Microsoft YaHei', sans-serif" font-size="32" fill="#bfdbfe">Kubernetes 控制面关键存储的生产升级指南</text>
  </g>
  <g transform="translate(112 650)">
    <rect x="0" y="0" width="276" height="70" rx="18" fill="#020617" opacity="0.42"/>
    <text x="32" y="45" font-family="Inter, Arial, sans-serif" font-size="26" font-weight="700" fill="#7dd3fc">Release · Security · Ops</text>
    <text x="0" y="128" font-family="Inter, Arial, sans-serif" font-size="28" font-weight="600" fill="#dbeafe">blog.waihost.com</text>
  </g>
</svg>
