<svg xmlns="http://www.w3.org/2000/svg" width="1600" height="900" viewBox="0 0 1600 900" role="img" aria-label="Hermes Agent 接入飞书、企业微信、钉钉全流程指南">
  <defs>
    <linearGradient id="g" x1="0" y1="0" x2="1" y2="1">
      <stop offset="0%" stop-color="#0f172a"/>
      <stop offset="45%" stop-color="#2563eb"/>
      <stop offset="100%" stop-color="#22c55e"/>
    </linearGradient>
    <radialGradient id="shine" cx="82%" cy="18%" r="42%">
      <stop offset="0%" stop-color="rgba(255,255,255,.32)"/>
      <stop offset="100%" stop-color="rgba(255,255,255,0)"/>
    </radialGradient>
    <filter id="soft" x="-20%" y="-20%" width="140%" height="140%">
      <feDropShadow dx="0" dy="18" stdDeviation="20" flood-color="rgba(15,23,42,.35)"/>
    </filter>
  </defs>

  <rect width="1600" height="900" fill="url(#g)"/>
  <rect width="1600" height="900" fill="url(#shine)"/>

  <g opacity=".12">
    <circle cx="1320" cy="168" r="170" fill="#fff"/>
    <circle cx="246" cy="758" r="205" fill="#fff"/>
    <path d="M180 260c120-110 270-120 390-20s250 100 380-10 300-110 470 30" fill="none" stroke="#fff" stroke-width="18" stroke-linecap="round"/>
    <path d="M1040 575h340M1040 645h270M1040 715h370" stroke="#fff" stroke-width="18" stroke-linecap="round"/>
  </g>

  <rect x="78" y="74" width="1444" height="752" rx="34" fill="rgba(15,23,42,.22)" stroke="rgba(255,255,255,.25)"/>

  <g filter="url(#soft)">
    <rect x="1028" y="284" width="360" height="248" rx="34" fill="rgba(255,255,255,.16)" stroke="rgba(255,255,255,.32)"/>
    <circle cx="1118" cy="384" r="46" fill="rgba(255,255,255,.92)"/>
    <circle cx="1298" cy="384" r="46" fill="rgba(255,255,255,.92)"/>
    <circle cx="1208" cy="472" r="46" fill="rgba(255,255,255,.92)"/>
    <path d="M1158 384h100M1149 418l34 32M1267 418l-34 32" stroke="rgba(255,255,255,.88)" stroke-width="18" stroke-linecap="round"/>
    <text x="1118" y="398" text-anchor="middle" font-size="34" font-weight="800" font-family="Inter,Arial,sans-serif" fill="#2563eb">飞</text>
    <text x="1298" y="398" text-anchor="middle" font-size="30" font-weight="800" font-family="Inter,Arial,sans-serif" fill="#16a34a">企</text>
    <text x="1208" y="486" text-anchor="middle" font-size="34" font-weight="800" font-family="Inter,Arial,sans-serif" fill="#0ea5e9">钉</text>
  </g>

  <text x="128" y="186" font-size="34" font-family="Inter,Arial,sans-serif" fill="rgba(255,255,255,.9)">吾爱主机 · 技术博客</text>
  <text x="128" y="254" font-size="32" font-family="JetBrains Mono,Consolas,monospace" fill="rgba(255,255,255,.88)">🤖 AI AGENT / GATEWAY</text>
  <text x="128" y="392" font-size="96" font-weight="800" font-family="Inter,'PingFang SC','Microsoft YaHei',sans-serif" fill="#fff">Hermes Agent</text>
  <text x="128" y="488" font-size="58" font-weight="760" font-family="Inter,'PingFang SC','Microsoft YaHei',sans-serif" fill="rgba(255,255,255,.95)">接入飞书 · 企业微信 · 钉钉</text>
  <text x="128" y="570" font-size="40" font-weight="620" font-family="Inter,'PingFang SC','Microsoft YaHei',sans-serif" fill="rgba(255,255,255,.86)">打造你的全平台 AI 分身</text>
  <text x="128" y="742" font-size="30" font-family="JetBrains Mono,Consolas,monospace" fill="rgba(255,255,255,.85)">blog.waihost.com</text>
</svg>
