<svg xmlns="http://www.w3.org/2000/svg" width="1600" height="900" viewBox="0 0 1600 900" role="img" aria-label="Kubernetes 1.36.2 升级检查清单封面">
  <defs>
    <linearGradient id="bg" x1="0" y1="0" x2="1" y2="1">
      <stop offset="0" stop-color="#0f172a"/>
      <stop offset="0.52" stop-color="#164e63"/>
      <stop offset="1" stop-color="#2563eb"/>
    </linearGradient>
    <radialGradient id="glow" cx="74%" cy="22%" r="62%">
      <stop offset="0" stop-color="#67e8f9" stop-opacity="0.36"/>
      <stop offset="1" stop-color="#67e8f9" stop-opacity="0"/>
    </radialGradient>
    <filter id="shadow" x="-20%" y="-20%" width="140%" height="140%">
      <feDropShadow dx="0" dy="18" stdDeviation="22" flood-color="#020617" flood-opacity="0.42"/>
    </filter>
  </defs>
  <rect width="1600" height="900" fill="url(#bg)"/>
  <rect width="1600" height="900" fill="url(#glow)"/>
  <g opacity="0.16" stroke="#dbeafe" stroke-width="2">
    <path d="M110 710 C350 560 520 770 760 610 S1160 505 1490 660" fill="none"/>
    <path d="M150 245 C370 120 540 330 780 210 S1130 120 1460 286" fill="none"/>
    <path d="M250 790 C520 690 740 820 1010 700 S1280 620 1510 748" fill="none"/>
  </g>
  <g transform="translate(990 210)" filter="url(#shadow)">
    <circle cx="140" cy="140" r="130" fill="#0f172a" stroke="#93c5fd" stroke-width="6"/>
    <circle cx="140" cy="140" r="80" fill="#2563eb" opacity="0.24"/>
    <g fill="none" stroke="#bfdbfe" stroke-width="8" stroke-linecap="round" stroke-linejoin="round">
      <path d="M140 34 L226 84 L226 184 L140 234 L54 184 L54 84 Z"/>
      <path d="M140 72 L194 104 L194 166 L140 198 L86 166 L86 104 Z" opacity="0.85"/>
      <path d="M140 34 L140 72 M226 84 L194 104 M226 184 L194 166 M140 234 L140 198 M54 184 L86 166 M54 84 L86 104" opacity="0.75"/>
    </g>
    <text x="140" y="155" text-anchor="middle" font-family="Inter, Arial, sans-serif" font-size="50" font-weight="900" fill="#f8fafc">1.36</text>
    <text x="140" y="196" text-anchor="middle" font-family="Inter, Arial, sans-serif" font-size="30" font-weight="800" fill="#7dd3fc">.2</text>
  </g>
  <g transform="translate(110 120)">
    <text x="0" y="0" font-family="Inter, 'PingFang SC', 'Microsoft YaHei', sans-serif" font-size="34" font-weight="700" fill="#bae6fd">吾爱主机 · 技术博客</text>
    <rect x="0" y="58" width="242" height="54" rx="27" fill="#0ea5e9" opacity="0.95"/>
    <text x="121" y="95" text-anchor="middle" font-family="Inter, 'PingFang SC', sans-serif" font-size="24" font-weight="700" fill="#ffffff">云原生 / K8s</text>
    <text x="0" y="218" font-family="Inter, 'PingFang SC', 'Microsoft YaHei', sans-serif" font-size="78" font-weight="900" fill="#ffffff">Kubernetes 1.36.2</text>
    <text x="0" y="308" font-family="Inter, 'PingFang SC', 'Microsoft YaHei', sans-serif" font-size="56" font-weight="800" fill="#e0f2fe">补丁升级与稳定性检查</text>
    <text x="0" y="382" font-family="Inter, 'PingFang SC', 'Microsoft YaHei', sans-serif" font-size="32" fill="#bfdbfe">DRA · CSI · Scheduler · Control Plane</text>
  </g>
  <g transform="translate(112 650)">
    <rect x="0" y="0" width="332" height="70" rx="18" fill="#020617" opacity="0.42"/>
    <text x="32" y="45" font-family="Inter, Arial, sans-serif" font-size="26" font-weight="700" fill="#7dd3fc">Release · Upgrade · Ops</text>
    <text x="0" y="128" font-family="Inter, Arial, sans-serif" font-size="28" font-weight="600" fill="#dbeafe">blog.waihost.com</text>
  </g>
</svg>
