<svg xmlns="http://www.w3.org/2000/svg" width="1600" height="900" viewBox="0 0 1600 900" role="img" aria-label="Vite 8.1 升级实战：Rolldown、Node 版本与前端构建链检查清单">
  <defs>
    <linearGradient id="g" x1="0" y1="0" x2="1" y2="1">
      <stop offset="0%" stop-color="#111827"/>
      <stop offset="52%" stop-color="#6d28d9"/>
      <stop offset="100%" stop-color="#facc15"/>
    </linearGradient>
    <radialGradient id="shine" cx="82%" cy="18%" r="38%">
      <stop offset="0%" stop-color="rgba(255,255,255,.30)"/>
      <stop offset="100%" stop-color="rgba(255,255,255,0)"/>
    </radialGradient>
  </defs>
  <rect width="1600" height="900" fill="url(#g)"/>
  <rect width="1600" height="900" fill="url(#shine)"/>
  <g opacity=".13">
    <circle cx="1320" cy="170" r="160" fill="#fff"/>
    <circle cx="250" cy="760" r="190" fill="#fff"/>
    <path d="M1070 520h310M1070 590h240M1070 660h340" stroke="#fff" stroke-width="18" stroke-linecap="round"/>
    <path d="M1180 285l-86 164h112l-58 166 196-248h-118l66-82z" fill="#fff"/>
    <rect x="1020" y="450" width="410" height="260" rx="30" stroke="#fff" stroke-width="10" fill="none"/>
  </g>
  <rect x="78" y="74" width="1444" height="752" rx="34" fill="rgba(15,23,42,.20)" stroke="rgba(255,255,255,.24)"/>
  <text x="128" y="186" font-size="34" font-family="Inter,Arial,sans-serif" fill="rgba(255,255,255,.9)">吾爱主机 · 技术博客</text>
  <text x="128" y="254" font-size="32" font-family="JetBrains Mono,Consolas,monospace" fill="rgba(255,255,255,.88)">⚡ FRONTEND / BUILD</text>
  <text x="128" y="392" font-size="100" font-weight="800" font-family="Inter,'PingFang SC','Microsoft YaHei',sans-serif" fill="#fff">Vite 8.1 升级实战</text>
  <text x="128" y="485" font-size="46" font-weight="650" font-family="Inter,'PingFang SC','Microsoft YaHei',sans-serif" fill="rgba(255,255,255,.92)">Rolldown · Node.js · 构建链检查清单</text>
  <text x="128" y="742" font-size="30" font-family="JetBrains Mono,Consolas,monospace" fill="rgba(255,255,255,.85)">blog.waihost.com</text>
</svg>
